<?xml version="1.0" encoding="utf-8"?>

<!-- License Agreement at http://iconmonstr.com/license/ -->

<!DOCTYPE svg PUBLIC "-//W3C//DTD SVG 1.1//EN" "http://www.w3.org/Graphics/SVG/1.1/DTD/svg11.dtd">
<svg version="1.1" xmlns="http://www.w3.org/2000/svg" xmlns:xlink="http://www.w3.org/1999/xlink" x="0px" y="0px"
	 width="512px" height="512px" viewBox="0 0 512 512" style="enable-background:new 0 0 512 512;" xml:space="preserve">
<path id="easter-6" d="M200.862,265.045c-0.335-0.193-0.688-0.311-1.023-0.461c0.335-0.151,0.688-0.269,1.023-0.461
	c5.113-2.943,6.856-9.464,3.906-14.561c-2.95-5.096-9.455-6.848-14.568-3.906c-0.319,0.201-0.604,0.436-0.905,0.654
	c0.05-0.369,0.117-0.721,0.117-1.106c0-5.893-4.778-10.662-10.662-10.662s-10.662,4.77-10.662,10.662
	c0,0.385,0.067,0.737,0.117,1.115c-0.302-0.218-0.57-0.461-0.905-0.662c-5.113-2.942-11.618-1.19-14.551,3.906
	c-2.951,5.097-1.224,11.617,3.889,14.561c0.319,0.192,0.688,0.31,1.023,0.461c-0.335,0.143-0.704,0.268-1.04,0.452
	c-5.096,2.95-6.823,9.472-3.889,14.568c2.95,5.097,9.455,6.849,14.568,3.905c0.335-0.201,0.604-0.436,0.905-0.653
	c-0.05,0.369-0.117,0.729-0.117,1.106c0,5.893,4.778,10.662,10.662,10.662s10.662-4.77,10.662-10.662
	c0-0.385-0.067-0.737-0.117-1.115c0.302,0.219,0.586,0.461,0.905,0.662c5.113,2.943,11.618,1.191,14.568-3.905
	C207.702,274.508,205.975,267.995,200.862,265.045z M178.75,276.218c-6.421,0-11.634-5.214-11.634-11.634
	c0-6.422,5.213-11.635,11.634-11.635c6.438,0,11.634,5.213,11.634,11.635C190.384,271.004,185.188,276.218,178.75,276.218z
	 M278.112,265.045c-0.335-0.193-0.688-0.311-1.022-0.461c0.335-0.151,0.688-0.269,1.022-0.461c5.112-2.943,6.856-9.464,3.905-14.561
	c-2.949-5.096-9.455-6.848-14.567-3.906c-0.319,0.201-0.604,0.436-0.905,0.654c0.051-0.369,0.117-0.721,0.117-1.106
	c0-5.893-4.777-10.662-10.662-10.662c-5.884,0-10.662,4.77-10.662,10.662c0,0.385,0.067,0.737,0.117,1.115
	c-0.302-0.218-0.57-0.461-0.905-0.662c-5.113-2.942-11.618-1.19-14.551,3.906c-2.951,5.097-1.224,11.617,3.889,14.561
	c0.319,0.192,0.688,0.31,1.023,0.461c-0.335,0.143-0.704,0.268-1.04,0.452c-5.096,2.95-6.823,9.472-3.889,14.568
	c2.95,5.097,9.455,6.849,14.568,3.905c0.335-0.201,0.604-0.436,0.905-0.653c-0.05,0.369-0.117,0.729-0.117,1.106
	c0,5.893,4.778,10.662,10.662,10.662c5.885,0,10.662-4.77,10.662-10.662c0-0.385-0.066-0.737-0.117-1.115
	c0.302,0.219,0.586,0.461,0.905,0.662c5.112,2.943,11.618,1.191,14.567-3.905C284.952,274.508,283.225,267.995,278.112,265.045z
	 M256,276.218c-6.421,0-11.634-5.214-11.634-11.634c0-6.422,5.213-11.635,11.634-11.635c6.438,0,11.635,5.213,11.635,11.635
	C267.635,271.004,262.438,276.218,256,276.218z M355.362,265.045c-0.335-0.193-0.688-0.311-1.022-0.461
	c0.335-0.151,0.688-0.269,1.022-0.461c5.112-2.943,6.856-9.464,3.905-14.561c-2.949-5.096-9.455-6.848-14.567-3.906
	c-0.319,0.201-0.604,0.436-0.905,0.654c0.051-0.369,0.117-0.721,0.117-1.106c0-5.893-4.777-10.662-10.662-10.662
	s-10.662,4.77-10.662,10.662c0,0.385,0.066,0.737,0.117,1.115c-0.302-0.218-0.57-0.461-0.905-0.662
	c-5.112-2.942-11.618-1.19-14.552,3.906c-2.95,5.097-1.223,11.617,3.89,14.561c0.319,0.192,0.688,0.31,1.022,0.461
	c-0.335,0.143-0.703,0.268-1.039,0.452c-5.096,2.95-6.823,9.472-3.889,14.568c2.949,5.097,9.455,6.849,14.567,3.905
	c0.335-0.201,0.604-0.436,0.905-0.653c-0.051,0.369-0.117,0.729-0.117,1.106c0,5.893,4.777,10.662,10.662,10.662
	s10.662-4.77,10.662-10.662c0-0.385-0.066-0.737-0.117-1.115c0.302,0.219,0.586,0.461,0.905,0.662
	c5.112,2.943,11.618,1.191,14.567-3.905C362.202,274.508,360.475,267.995,355.362,265.045z M333.25,276.218
	c-6.421,0-11.635-5.214-11.635-11.634c0-6.422,5.214-11.635,11.635-11.635c6.438,0,11.635,5.213,11.635,11.635
	C344.885,271.004,339.688,276.218,333.25,276.218z M256,50c-77.267,0-154.5,122.145-154.5,233.191
	C101.5,381.414,160.142,462,256,462s154.5-80.586,154.5-178.809C410.5,172.145,333.267,50,256,50z M256,84.333
	c30.88,0,67.963,35.649,92.707,85.833H163.293C188.038,119.983,225.12,84.333,256,84.333z M256,427.667
	c-51.818,0-85.9-29.505-104.123-68.667h208.246C341.9,398.162,307.818,427.667,256,427.667z M371.59,324.667H140.41
	c-3.018-13.612-4.577-27.645-4.577-41.476c0-27.041,5.08-53.847,13.361-78.691h213.611c8.281,24.845,13.36,51.651,13.36,78.691
	C376.166,297.022,374.607,311.055,371.59,324.667z"/>
</svg>
