<?xml version="1.0" encoding="utf-8"?>

<!-- License Agreement at http://iconmonstr.com/license/ -->

<!DOCTYPE svg PUBLIC "-//W3C//DTD SVG 1.1//EN" "http://www.w3.org/Graphics/SVG/1.1/DTD/svg11.dtd">
<svg version="1.1" xmlns="http://www.w3.org/2000/svg" xmlns:xlink="http://www.w3.org/1999/xlink" x="0px" y="0px"
	 width="512px" height="512px" viewBox="0 0 512 512" style="enable-background:new 0 0 512 512;" xml:space="preserve">
<path id="easter-8" d="M204.5,264.584c0,14.225-11.525,25.75-25.75,25.75S153,278.809,153,264.584
	c0-14.225,11.525-25.75,25.75-25.75S204.5,250.359,204.5,264.584z M333.25,238.833c-14.217,0-25.75,11.525-25.75,25.75
	c0,14.225,11.533,25.75,25.75,25.75S359,278.809,359,264.584C359,250.359,347.467,238.833,333.25,238.833z M256,238.833
	c-14.225,0-25.75,11.525-25.75,25.75c0,14.225,11.525,25.75,25.75,25.75s25.75-11.525,25.75-25.75
	C281.75,250.359,270.225,238.833,256,238.833z M410.5,283.191C410.5,381.414,351.858,462,256,462s-154.5-80.586-154.5-178.809
	C101.5,172.145,178.733,50,256,50S410.5,172.145,410.5,283.191z M376.166,283.191c0-32.438-7.225-64.584-18.641-93.327
	l-20.353,14.602l-20.335-14.619l-20.285,14.635l-20.335-14.635l-20.318,14.644l-20.276-14.635l-20.327,14.635l-20.226-14.618
	L174.827,204.5l-20.285-14.644c-11.408,28.734-18.709,60.922-18.709,93.335c0,16.781,2.246,33.864,6.722,50.126l11.987-8.65
	l20.276,14.636l20.251-14.636l20.251,14.651l20.318-14.651l20.276,14.651l20.285-14.635l20.335,14.635l20.284-14.635l20.369,14.635
	l20.369-14.618l11.902,8.55C373.92,316.988,376.166,299.947,376.166,283.191z M167.292,162.204l7.527,5.432L195.07,153
	l20.251,14.644l20.318-14.635l20.276,14.635l20.285-14.627l20.335,14.635l20.284-14.635l20.369,14.644l7.544-5.415
	C320.107,116.245,285.236,84.333,256,84.333C226.771,84.333,191.927,116.228,167.292,162.204z M358.497,362.186l-0.938-0.688
	l-20.386,14.635l-20.335-14.618l-20.285,14.636l-20.335-14.636l-20.318,14.652l-20.276-14.652l-20.327,14.652l-20.226-14.618
	l-20.243,14.618l-20.285-14.652l-1.006,0.737c18.575,37.52,52.12,65.415,102.463,65.415
	C306.377,427.667,339.922,399.721,358.497,362.186z"/>
</svg>
