<?xml version="1.0" encoding="utf-8"?>

<!-- License Agreement at http://iconmonstr.com/license/ -->

<!DOCTYPE svg PUBLIC "-//W3C//DTD SVG 1.1//EN" "http://www.w3.org/Graphics/SVG/1.1/DTD/svg11.dtd">
<svg version="1.1" xmlns="http://www.w3.org/2000/svg" xmlns:xlink="http://www.w3.org/1999/xlink" x="0px" y="0px"
	 width="512px" height="512px" viewBox="0 0 512 512" style="enable-background:new 0 0 512 512;" xml:space="preserve">
<path id="easter-12" d="M256,50c-77.267,0-154.5,122.145-154.5,233.191C101.5,381.414,160.142,462,256,462
	s154.5-80.586,154.5-178.809C410.5,172.145,333.267,50,256,50z M323.51,129.379c2.984,17.837-1.643,37.418-14.148,58.524
	c-32.893,55.515-109.17,104.333-171.466,123.151c-1.341-9.263-2.062-18.609-2.062-27.863c0-9.152,0.754-18.256,1.827-27.292
	c55.942-23.302,115.02-74.434,138.708-121.248c6.974-13.764,10.829-26.924,11.734-39.22
	C300.207,103.235,312.295,114.895,323.51,129.379z M253.519,84.619c1.324,8.047,0,19.145-7.779,34.534
	c-17.552,34.644-59.061,71.416-99.278,93.931C167.267,142.925,214.827,86.915,253.519,84.619z M146.16,344.734
	c74.082-21.476,156.914-78.859,192.739-139.329c5.649-9.547,9.941-19.019,13.177-28.39c8.701,18.985,15.457,39.866,19.598,61.542
	c-18.877,68.876-124.073,135.799-200.719,150.485C160.142,376.234,151.91,361.079,146.16,344.734z M256,427.667
	c-19.749,0-36.848-4.376-51.55-11.853c63.034-18.692,133.695-56.328,170.862-115.531C369.629,364.499,331.825,427.667,256,427.667z"
	/>
</svg>
