<?xml version="1.0" encoding="utf-8"?>

<!-- License Agreement at http://iconmonstr.com/license/ -->

<!DOCTYPE svg PUBLIC "-//W3C//DTD SVG 1.1//EN" "http://www.w3.org/Graphics/SVG/1.1/DTD/svg11.dtd">
<svg version="1.1" xmlns="http://www.w3.org/2000/svg" xmlns:xlink="http://www.w3.org/1999/xlink" x="0px" y="0px"
	 width="512px" height="512px" viewBox="0 0 512 512" style="enable-background:new 0 0 512 512;" xml:space="preserve">
<path id="easter-13" d="M178.75,307.5c-14.217,0-25.75,11.534-25.75,25.75c0,14.217,11.533,25.75,25.75,25.75
	c14.216,0,25.75-11.533,25.75-25.75C204.5,319.034,192.966,307.5,178.75,307.5z M264.584,324.667
	c-14.217,0-25.751,11.534-25.751,25.75s11.534,25.75,25.751,25.75c14.215,0,25.75-11.534,25.75-25.75
	S278.799,324.667,264.584,324.667z M161.583,221.667c-14.216,0-25.75,11.534-25.75,25.75c0,14.216,11.534,25.75,25.75,25.75
	s25.75-11.534,25.75-25.75C187.333,233.201,175.799,221.667,161.583,221.667z M347.047,153.729
	c5.314,14.669-2.264,30.846-16.949,36.161c-14.635,5.306-30.812-2.263-36.143-16.924c-5.314-14.644,2.279-30.838,16.932-36.152
	C325.539,131.5,341.732,139.061,347.047,153.729z M397.642,85.138c-1.491,0.553-2.934,1.366-4.241,2.49l-44.627,38.206
	c7.041,5.298,12.741,12.565,15.96,21.483c8.852,24.392-3.822,51.433-28.198,60.276c-24.375,8.843-51.432-3.797-60.283-28.214
	c-3.229-8.91-3.538-18.147-1.477-26.764l-58.767-0.671c-1.735-0.025-3.37,0.277-4.87,0.813c-6.84,2.481-10.897,10.218-8.206,17.627
	l28.717,79.27c3.286,9.037,14.627,12.029,21.902,5.742l37.185-32.078c1.189,18.307-6.069,50.041-10.897,61.5l29.572-14.4
	l19.245,19.916c9.689-19.488,14.787-49.941,11.937-71.559c11.668,18.416,35.071,38.533,55.021,47.276l1.979-27.603l31.969-7.904
	c-11.047-5.708-36.965-25.423-47.795-40.217l49.119,0.779c7.947,0.126,13.949-6.371,13.949-13.747
	c0-4.007-28.232-80.184-29.59-83.947C412.578,86.001,404.481,82.666,397.642,85.138z M375.748,294.299
	C371.473,387.398,313.871,462,221.666,462c-95.858,0-154.5-80.586-154.5-178.809C67.166,172.145,144.399,50,221.666,50
	c31.358,0,62.633,20.318,88.818,51.651c-3.84,0.629-7.611,1.551-11.299,2.884c-7.713,2.799-14.553,7.133-20.453,12.473
	c-18.684-20.26-38.943-32.674-57.066-32.674c-51.357,0-120.166,98.314-120.166,198.858c0,69.572,37.603,144.476,120.166,144.476
	c66.739,0,104.074-48.952,115.943-104.442c9.371-2.564,17.384-8.784,21.76-17.586c2.514-5.045,4.795-10.569,6.772-16.395
	C369.36,291.205,372.545,292.672,375.748,294.299z"/>
</svg>
