<?xml version="1.0" encoding="utf-8"?>

<!-- License Agreement at http://iconmonstr.com/license/ -->

<!DOCTYPE svg PUBLIC "-//W3C//DTD SVG 1.1//EN" "http://www.w3.org/Graphics/SVG/1.1/DTD/svg11.dtd">
<svg version="1.1" xmlns="http://www.w3.org/2000/svg" xmlns:xlink="http://www.w3.org/1999/xlink" x="0px" y="0px"
	 width="512px" height="512px" viewBox="0 0 512 512" style="enable-background:new 0 0 512 512;" xml:space="preserve">
<path id="easter-10" d="M256,50c-77.267,0-154.5,122.145-154.5,233.191C101.5,381.414,160.142,462,256,462
	s154.5-80.586,154.5-178.809C410.5,172.145,333.267,50,256,50z M144.333,339.185c-5.65-18.005-8.5-37.175-8.5-55.993
	c0-5.959,0.285-11.919,0.737-17.846c1.442,0.654,2.9,1.786,5.365,3.84c6.001,5.004,15.071,12.564,31.584,12.564
	c16.496,0,25.565-7.568,31.55-12.573c4.543-3.788,5.65-4.593,9.556-4.593c3.94,0,5.046,0.805,9.589,4.602
	c6.001,5.004,15.071,12.564,31.567,12.564c16.513,0,25.582-7.561,31.584-12.564c4.577-3.797,5.666-4.602,9.622-4.602
	c3.957,0,5.047,0.805,9.623,4.602c6.002,5.004,15.071,12.564,31.584,12.564c16.514,0,25.582-7.553,31.584-12.557
	c2.615-2.17,4.107-3.303,5.633-3.931c0.47,5.96,0.754,11.937,0.754,17.929c0,17.05-2.296,34.4-6.906,50.896
	c-5.885-4.358-14.065-8.885-26.891-8.885c-16.496,0-25.564,7.578-31.55,12.573c-4.543,3.789-5.649,4.594-9.556,4.594
	c-3.939,0-5.046-0.805-9.59-4.594c-6.001-5.013-15.07-12.573-31.566-12.573c-16.513,0-25.583,7.561-31.584,12.573
	c-4.577,3.789-5.667,4.594-9.623,4.594c-3.956,0-5.046-0.805-9.623-4.594c-6.001-5.013-15.071-12.573-31.584-12.573
	s-25.583,7.544-31.584,12.557C145.406,338.347,144.903,338.732,144.333,339.185z M141.768,231.323
	c3.621-16.454,8.818-32.288,15.138-47.175c4.526,1.827,9.857,3.185,16.613,3.185c16.496,0,25.565-7.569,31.55-12.573
	c4.543-3.789,5.65-4.593,9.556-4.593c3.94,0,5.046,0.805,9.589,4.602c6.001,5.004,15.071,12.565,31.567,12.565
	c16.513,0,25.582-7.561,31.584-12.565c4.577-3.797,5.666-4.602,9.622-4.602c3.957,0,5.047,0.805,9.623,4.602
	c6.002,5.004,15.071,12.565,31.584,12.565c6.873,0,12.238-1.458,16.832-3.344c6.354,14.928,11.566,30.804,15.205,47.309
	c-10.797,2.138-17.653,7.552-22.414,11.517c-4.576,3.797-5.666,4.602-9.623,4.602c-3.956,0-5.046-0.805-9.623-4.602
	c-6.001-5.004-15.07-12.565-31.584-12.565c-16.512,0-25.582,7.561-31.584,12.565c-4.576,3.797-5.666,4.602-9.622,4.602
	c-3.923,0-5.029-0.805-9.573-4.594c-6.001-5.012-15.071-12.573-31.584-12.573c-16.496,0-25.565,7.569-31.55,12.573
	c-4.543,3.789-5.649,4.594-9.556,4.594c-3.939,0-5.046-0.805-9.589-4.602C159.203,238.875,152.413,233.502,141.768,231.323z
	 M256,84.333c27.209,0,59.211,27.711,83.386,68.583c-0.402,0.025-0.721,0.083-1.19,0.083c-3.956,0-5.046-0.805-9.623-4.602
	c-6.001-5.004-15.07-12.565-31.584-12.565c-16.512,0-25.582,7.561-31.584,12.565c-4.576,3.797-5.666,4.602-9.622,4.602
	c-3.923,0-5.029-0.805-9.573-4.593c-6.001-5.013-15.071-12.573-31.584-12.573c-16.496,0-25.565,7.569-31.55,12.573
	c-4.543,3.789-5.649,4.593-9.556,4.593c-0.352,0-0.604-0.05-0.905-0.067C196.789,112.053,228.792,84.333,256,84.333z M256,427.667
	c-46.32,0-78.491-23.587-97.803-56.563c4.007-2.279,7.31-4.828,9.875-6.974c4.577-3.788,5.666-4.593,9.623-4.593
	s5.046,0.805,9.623,4.593c6.002,5.013,15.071,12.573,31.584,12.573c16.513,0,25.583-7.561,31.584-12.573
	c4.577-3.788,5.667-4.593,9.623-4.593c3.923,0,5.029,0.805,9.572,4.593c6.002,5.013,15.071,12.573,31.584,12.573
	c16.496,0,25.565-7.577,31.551-12.573c4.543-3.788,5.649-4.593,9.555-4.593c3.94,0,5.047,0.805,9.59,4.593
	c1.141,0.956,2.515,2.028,3.906,3.085C336.82,402.186,304.08,427.667,256,427.667z"/>
</svg>
